<svg width="1440" height="960" viewBox="0 0 1440 960" fill="none" xmlns="http://www.w3.org/2000/svg">
  <rect width="1440" height="960" fill="#F6F5F2"/><rect width="238" height="960" fill="white"/><circle cx="48" cy="51" r="18" fill="#1D2026"/><path d="M30 51a18 18 0 0 0 36 0" fill="#FF5E1E"/><text x="78" y="58" fill="#1D2026" font-family="Arial" font-size="24" font-weight="700">Orderly</text>
  <g font-family="Arial" font-size="14" font-weight="600" fill="#858B96"><text x="73" y="130">Dashboard</text><text x="73" y="189">Business Details</text><text x="73" y="248">Products</text><text x="73" y="307">Promotions</text><text x="73" y="366">Customers</text><text x="73" y="425">Orders</text><text x="73" y="484">Complaints</text><rect x="18" y="510" width="202" height="51" rx="13" fill="#FFF0E8"/><rect x="18" y="519" width="4" height="33" rx="2" fill="#FF5E1E"/><text x="73" y="541" fill="#FF5E1E">Chat</text><text x="73" y="602">Settings</text></g>
  <g stroke="#9DA2AB" stroke-width="2"><circle cx="48" cy="126" r="9"/><rect x="39" y="178" width="18" height="16" rx="3"/><rect x="40" y="237" width="16" height="16" rx="2"/><path d="M39 297h18v15H39zM39 357h18M42 348h12v18H42zM39 414h18v19H39zM40 472h17v17H40z"/><path d="M39 531h18v15H39z" stroke="#FF5E1E"/><path d="M40 590h16v17H40z"/></g><circle cx="197" cy="536" r="11" fill="#FF5E1E"/><text x="194" y="540" fill="white" font-family="Arial" font-size="9" font-weight="700">5</text>
  <rect x="238" width="1202" height="82" fill="white"/><text x="281" y="44" fill="#1D2026" font-family="Arial" font-size="24" font-weight="700">Messages</text><text x="281" y="65" fill="#989DA5" font-family="Arial" font-size="11">Dashboard / Messages</text><rect x="1188" y="22" width="151" height="39" rx="12" fill="#FFF0E8"/><circle cx="1213" cy="41" r="6" fill="#24B761"/><text x="1229" y="45" fill="#FF5E1E" font-family="Arial" font-size="11" font-weight="700">AI bot active</text><circle cx="1381" cy="41" r="20" fill="#FF5E1E"/><text x="1373" y="46" fill="white" font-family="Arial" font-size="12" font-weight="700">MM</text>
  <rect x="268" y="111" width="1141" height="802" rx="18" fill="white" stroke="#E9E5E0"/>
  <rect x="268" y="111" width="343" height="802" rx="18" fill="#FCFBF9"/><path d="M611 112v800" stroke="#E9E5E0"/>
  <text x="296" y="151" fill="#1D2026" font-family="Arial" font-size="18" font-weight="700">Conversations</text><text x="296" y="171" fill="#999EA6" font-family="Arial" font-size="10">12 active conversations</text><rect x="296" y="193" width="287" height="42" rx="11" fill="white" stroke="#E8E4DF"/><text x="318" y="219" fill="#A1A5AD" font-family="Arial" font-size="11">⌕  Search customers...</text>
  <rect x="283" y="257" width="313" height="83" rx="13" fill="#FFF0E8"/><rect x="283" y="276" width="4" height="45" rx="2" fill="#FF5E1E"/><circle cx="321" cy="298" r="22" fill="#1D2026"/><text x="313" y="304" fill="white" font-family="Arial" font-size="13" font-weight="700">AM</text><circle cx="337" cy="314" r="6" fill="#27BF67" stroke="white" stroke-width="2"/><text x="354" y="285" fill="#1D2026" font-family="Arial" font-size="12" font-weight="700">Amelia Martin</text><text x="354" y="307" fill="#656B74" font-family="Arial" font-size="10">Yes, that works perfectly!</text><text x="354" y="325" fill="#A2A6AD" font-family="Arial" font-size="9">+49 151 234 8890</text><text x="551" y="285" fill="#FF5E1E" font-family="Arial" font-size="9">2m</text>
  <g font-family="Arial"><circle cx="321" cy="382" r="22" fill="#F3D1A9"/><text x="313" y="388" fill="#81572D" font-size="13" font-weight="700">LW</text><text x="354" y="370" fill="#1D2026" font-size="12" font-weight="700">Leo Wilson</text><text x="354" y="392" fill="#777C85" font-size="10">Can I change my pickup time?</text><text x="354" y="410" fill="#A2A6AD" font-size="9">+49 176 522 4103</text><text x="551" y="370" fill="#9BA0A8" font-size="9">8m</text><circle cx="565" cy="393" r="10" fill="#FF5E1E"/><text x="562" y="397" fill="white" font-size="8" font-weight="700">1</text>
  <circle cx="321" cy="468" r="22" fill="#C8D8E6"/><text x="313" y="474" fill="#405D77" font-size="13" font-weight="700">SB</text><text x="354" y="456" fill="#1D2026" font-size="12" font-weight="700">Sophia Brown</text><text x="354" y="478" fill="#777C85" font-size="10">Thank you for your help.</text><text x="354" y="496" fill="#A2A6AD" font-size="9">+49 160 991 4207</text><text x="551" y="456" fill="#9BA0A8" font-size="9">24m</text>
  <circle cx="321" cy="554" r="22" fill="#E7C6D5"/><text x="313" y="560" fill="#77405A" font-size="13" font-weight="700">NM</text><text x="354" y="542" fill="#1D2026" font-size="12" font-weight="700">Noah Miller</text><text x="354" y="564" fill="#777C85" font-size="10">Is the pesto pasta vegan?</text><text x="354" y="582" fill="#A2A6AD" font-size="9">+49 177 602 8875</text><text x="551" y="542" fill="#9BA0A8" font-size="9">1h</text>
  <circle cx="321" cy="640" r="22" fill="#D7E8C8"/><text x="313" y="646" fill="#496537" font-size="13" font-weight="700">EK</text><text x="354" y="628" fill="#1D2026" font-size="12" font-weight="700">Emma Keller</text><text x="354" y="650" fill="#777C85" font-size="10">I&apos;d like to reserve a table.</text><text x="354" y="668" fill="#A2A6AD" font-size="9">+49 175 321 0031</text><text x="551" y="628" fill="#9BA0A8" font-size="9">2h</text></g>
  <rect x="612" y="112" width="796" height="84" rx="18" fill="white"/><path d="M612 196h796" stroke="#E9E5E0"/><circle cx="657" cy="153" r="24" fill="#1D2026"/><text x="648" y="159" fill="white" font-family="Arial" font-size="14" font-weight="700">AM</text><circle cx="675" cy="170" r="6" fill="#27BF67" stroke="white" stroke-width="2"/><text x="695" y="147" fill="#1D2026" font-family="Arial" font-size="14" font-weight="700">Amelia Martin</text><text x="695" y="166" fill="#27A85C" font-family="Arial" font-size="10">Online · WhatsApp</text><rect x="1265" y="133" width="104" height="39" rx="10" fill="#F6F5F2"/><text x="1283" y="157" fill="#555B64" font-family="Arial" font-size="10" font-weight="700">View profile</text>
  <rect x="612" y="196" width="796" height="624" fill="#F9F8F6"/><text x="976" y="232" fill="#A3A7AE" font-family="Arial" font-size="9">TODAY</text>
  <rect x="651" y="265" width="351" height="73" rx="16" fill="white" stroke="#E7E3DE"/><text x="672" y="290" fill="#1D2026" font-family="Arial" font-size="12">Hi! Can I move my dinner reservation</text><text x="672" y="309" fill="#1D2026" font-family="Arial" font-size="12">from 7:00 to 7:30 this evening?</text><text x="955" y="326" fill="#A2A6AD" font-family="Arial" font-size="8">14:18</text>
  <rect x="949" y="366" width="416" height="91" rx="16" fill="#FF5E1E"/><text x="971" y="393" fill="white" font-family="Arial" font-size="12">Of course, Amelia. I found your reservation</text><text x="971" y="413" fill="white" font-family="Arial" font-size="12">for two and moved it to 7:30 PM.</text><text x="1295" y="443" fill="#FFE0D3" font-family="Arial" font-size="8">14:19  ✓✓</text>
  <rect x="651" y="486" width="265" height="58" rx="16" fill="white" stroke="#E7E3DE"/><text x="672" y="516" fill="#1D2026" font-family="Arial" font-size="12">Yes, that works perfectly!</text><text x="869" y="533" fill="#A2A6AD" font-family="Arial" font-size="8">14:20</text>
  <rect x="949" y="572" width="416" height="92" rx="16" fill="#FF5E1E"/><text x="971" y="599" fill="white" font-family="Arial" font-size="12">Wonderful—your table will be ready. We look</text><text x="971" y="619" fill="white" font-family="Arial" font-size="12">forward to seeing you tonight!</text><text x="1295" y="650" fill="#FFE0D3" font-family="Arial" font-size="8">14:20  ✓✓</text>
  <rect x="657" y="700" width="286" height="48" rx="13" fill="#FFF0E8" stroke="#FFD2BB"/><circle cx="681" cy="724" r="11" fill="#FF5E1E"/><text x="677" y="728" fill="white" font-family="Arial" font-size="9" font-weight="700">✦</text><text x="701" y="720" fill="#E04D18" font-family="Arial" font-size="9" font-weight="700">AI ASSISTANT</text><text x="701" y="736" fill="#766C66" font-family="Arial" font-size="9">Customer sentiment: positive</text>
  <rect x="612" y="820" width="796" height="92" rx="18" fill="white"/><rect x="641" y="840" width="646" height="50" rx="14" fill="#F7F6F4" stroke="#E7E3DE"/><text x="664" y="870" fill="#A0A4AC" font-family="Arial" font-size="11">Write a message...</text><circle cx="1319" cy="865" r="26" fill="#FF5E1E"/><path d="m1310 856 20 9-20 9 4-9-4-9Z" fill="white"/>
</svg>
