<svg width="1440" height="960" viewBox="0 0 1440 960" fill="none" xmlns="http://www.w3.org/2000/svg">
  <rect width="1440" height="960" fill="#F6F5F2"/>
  <rect width="238" height="960" fill="white"/>
  <circle cx="48" cy="51" r="18" fill="#1D2026"/><path d="M30 51a18 18 0 0 0 36 0" fill="#FF5E1E"/>
  <text x="78" y="58" fill="#1D2026" font-family="Arial" font-size="24" font-weight="700">Orderly</text>
  <g font-family="Arial" font-size="14" font-weight="600">
    <rect x="18" y="103" width="202" height="51" rx="13" fill="#FFF0E8"/><rect x="18" y="112" width="4" height="33" rx="2" fill="#FF5E1E"/><circle cx="47" cy="128" r="9" stroke="#FF5E1E" stroke-width="3"/><text x="73" y="133" fill="#FF5E1E">Dashboard</text>
    <g fill="#858B96"><text x="73" y="195">Business Details</text><text x="73" y="254">Products</text><text x="73" y="313">Promotions</text><text x="73" y="372">Customers</text><text x="73" y="431">Orders</text><text x="73" y="490">Complaints</text><text x="73" y="549">Chat</text><text x="73" y="608">Settings</text></g>
    <g stroke="#9DA2AB" stroke-width="2"><rect x="39" y="184" width="18" height="16" rx="3"/><rect x="40" y="243" width="16" height="16" rx="2"/><path d="M39 303h18v15H39zM39 363h18M42 354h12v18H42zM39 420h18v19H39zM40 478h17v17H40zM39 538h18v15H39zM40 596h16v17H40z"/></g>
  </g>
  <rect x="238" width="1202" height="82" fill="white"/>
  <text x="281" y="44" fill="#1D2026" font-family="Arial" font-size="24" font-weight="700">Dashboard</text>
  <text x="281" y="65" fill="#989DA5" font-family="Arial" font-size="11">Overview of your restaurant performance</text>
  <rect x="1134" y="21" width="172" height="40" rx="12" fill="#F6F5F2"/><circle cx="1160" cy="41" r="11" fill="#FFE3D1"/><text x="1180" y="39" fill="#1D2026" font-family="Arial" font-size="11" font-weight="700">Mamma Mia</text><text x="1180" y="53" fill="#969BA5" font-family="Arial" font-size="9">Restaurant admin</text>
  <circle cx="1349" cy="41" r="19" fill="#FF5E1E"/><text x="1341" y="47" fill="white" font-family="Arial" font-size="15" font-weight="700">MM</text>
  <text x="278" y="125" fill="#1D2026" font-family="Arial" font-size="22" font-weight="700">Today&apos;s overview</text>
  <text x="278" y="146" fill="#8C929C" font-family="Arial" font-size="11">Here&apos;s what&apos;s happening across your business.</text>
  <g>
    <rect x="276" y="174" width="285" height="134" rx="16" fill="white" stroke="#EDE9E4"/><circle cx="316" cy="214" r="20" fill="#FFF0E8"/><path d="M307 210h18l-2 12h-13l-3-12Z" stroke="#FF5E1E" stroke-width="2"/><text x="347" y="207" fill="#858B95" font-family="Arial" font-size="11">TOTAL ORDERS</text><text x="347" y="245" fill="#1D2026" font-family="Arial" font-size="30" font-weight="700">48,652</text><text x="296" y="285" fill="#22A65A" font-family="Arial" font-size="10" font-weight="700">↑ 1.58%</text><text x="351" y="285" fill="#A0A4AC" font-family="Arial" font-size="10">vs last month</text>
    <rect x="579" y="174" width="285" height="134" rx="16" fill="white" stroke="#EDE9E4"/><circle cx="619" cy="214" r="20" fill="#FFF0E8"/><circle cx="619" cy="208" r="6" stroke="#FF5E1E" stroke-width="2"/><path d="M608 224c2-9 20-9 22 0" stroke="#FF5E1E" stroke-width="2"/><text x="650" y="207" fill="#858B95" font-family="Arial" font-size="11">TOTAL CUSTOMERS</text><text x="650" y="245" fill="#1D2026" font-family="Arial" font-size="30" font-weight="700">1,248</text><text x="599" y="285" fill="#EF4444" font-family="Arial" font-size="10" font-weight="700">↓ 0.42%</text><text x="654" y="285" fill="#A0A4AC" font-family="Arial" font-size="10">vs last month</text>
    <rect x="882" y="174" width="285" height="134" rx="16" fill="white" stroke="#EDE9E4"/><circle cx="922" cy="214" r="20" fill="#FFF0E8"/><text x="915" y="221" fill="#FF5E1E" font-family="Arial" font-size="20" font-weight="700">€</text><text x="953" y="207" fill="#858B95" font-family="Arial" font-size="11">TOTAL REVENUE</text><text x="953" y="245" fill="#1D2026" font-family="Arial" font-size="30" font-weight="700">€215,860</text><text x="902" y="285" fill="#22A65A" font-family="Arial" font-size="10" font-weight="700">↑ 2.36%</text><text x="957" y="285" fill="#A0A4AC" font-family="Arial" font-size="10">vs last month</text>
    <rect x="1185" y="174" width="220" height="134" rx="16" fill="#1D2026"/><text x="1208" y="207" fill="#AEB1B8" font-family="Arial" font-size="10">QUICK INSIGHT</text><text x="1208" y="239" fill="white" font-family="Arial" font-size="17" font-weight="700">Dinner is leading</text><text x="1208" y="261" fill="#AEB1B8" font-family="Arial" font-size="10">Most orders arrive 6–9pm</text><rect x="1208" y="277" width="68" height="5" rx="2.5" fill="#FF5E1E"/>
  </g>
  <rect x="276" y="329" width="737" height="315" rx="17" fill="white" stroke="#EDE9E4"/><text x="301" y="364" fill="#1D2026" font-family="Arial" font-size="16" font-weight="700">Revenue overview</text><text x="301" y="383" fill="#969BA4" font-family="Arial" font-size="10">Monthly performance</text><rect x="914" y="348" width="74" height="31" rx="9" fill="#F6F5F2"/><text x="934" y="367" fill="#555A63" font-family="Arial" font-size="10">2026⌄</text>
  <g stroke="#EEEAE6" stroke-width="1"><path d="M317 425h655M317 470h655M317 515h655M317 560h655M317 605h655"/></g>
  <path d="M319 570C370 547 410 554 461 521C510 490 554 520 602 473C650 428 696 468 746 431C796 395 842 426 890 390C928 361 958 380 973 367V606H319Z" fill="url(#area)"/>
  <path d="M319 570C370 547 410 554 461 521C510 490 554 520 602 473C650 428 696 468 746 431C796 395 842 426 890 390C928 361 958 380 973 367" stroke="#FF5E1E" stroke-width="4" stroke-linecap="round"/>
  <g fill="#FF5E1E"><circle cx="461" cy="521" r="5"/><circle cx="602" cy="473" r="5"/><circle cx="746" cy="431" r="5"/><circle cx="890" cy="390" r="5"/></g>
  <g fill="#9A9FA8" font-family="Arial" font-size="9"><text x="314" y="625">Jan</text><text x="421" y="625">Mar</text><text x="526" y="625">May</text><text x="636" y="625">Jul</text><text x="744" y="625">Sep</text><text x="855" y="625">Nov</text><text x="957" y="625">Dec</text></g>
  <rect x="1031" y="329" width="374" height="315" rx="17" fill="white" stroke="#EDE9E4"/><text x="1057" y="364" fill="#1D2026" font-family="Arial" font-size="16" font-weight="700">Order channels</text><text x="1057" y="383" fill="#969BA4" font-family="Arial" font-size="10">Distribution by type</text>
  <circle cx="1218" cy="486" r="73" stroke="#F3E3D9" stroke-width="25"/><path d="M1218 413a73 73 0 0 1 64 108" stroke="#FF5E1E" stroke-width="25"/><path d="M1282 521a73 73 0 0 1-92 33" stroke="#1D2026" stroke-width="25"/><text x="1202" y="482" fill="#8D929B" font-family="Arial" font-size="10">TOTAL</text><text x="1194" y="508" fill="#1D2026" font-family="Arial" font-size="24" font-weight="700">2,000</text>
  <circle cx="1083" cy="602" r="5" fill="#FF5E1E"/><text x="1095" y="606" fill="#70757E" font-family="Arial" font-size="10">Dine-In 45%</text><circle cx="1183" cy="602" r="5" fill="#1D2026"/><text x="1195" y="606" fill="#70757E" font-family="Arial" font-size="10">Takeaway 30%</text><circle cx="1302" cy="602" r="5" fill="#F1C3A4"/><text x="1314" y="606" fill="#70757E" font-family="Arial" font-size="10">Online 25%</text>
  <text x="278" y="692" fill="#1D2026" font-family="Arial" font-size="18" font-weight="700">Trending menu</text>
  <g>
    <rect x="276" y="715" width="354" height="187" rx="16" fill="white" stroke="#EDE9E4"/><rect x="292" y="732" width="118" height="153" rx="12" fill="#FFD0B1"/><circle cx="351" cy="808" r="43" fill="#FF8A54"/><circle cx="351" cy="808" r="31" fill="#F8C46A"/><path d="M327 813c18-30 40-26 50 2M335 791c12 9 24 11 37 1" stroke="#8D4B25" stroke-width="5" stroke-linecap="round"/><text x="432" y="762" fill="#9499A2" font-family="Arial" font-size="10">CHICKEN</text><text x="432" y="791" fill="#1D2026" font-family="Arial" font-size="17" font-weight="700">Grilled Chicken</text><text x="432" y="813" fill="#1D2026" font-family="Arial" font-size="17" font-weight="700">Delight</text><text x="432" y="846" fill="#FFB800" font-family="Arial" font-size="12">★ 4.9</text><text x="488" y="846" fill="#9297A0" font-family="Arial" font-size="10">350 orders</text><text x="432" y="877" fill="#FF5E1E" font-family="Arial" font-size="18" font-weight="700">€18.00</text>
    <rect x="648" y="715" width="354" height="187" rx="16" fill="white" stroke="#EDE9E4"/><rect x="664" y="732" width="118" height="153" rx="12" fill="#F4E4A6"/><circle cx="723" cy="808" r="42" fill="#FFF7D6"/><path d="M689 814c22-16 47-17 68-1M703 785h41v29h-41z" fill="#FFB800"/><text x="804" y="762" fill="#9499A2" font-family="Arial" font-size="10">DESSERT</text><text x="804" y="791" fill="#1D2026" font-family="Arial" font-size="17" font-weight="700">Sunny Citrus Cake</text><text x="804" y="826" fill="#FFB800" font-family="Arial" font-size="12">★ 4.8</text><text x="860" y="826" fill="#9297A0" font-family="Arial" font-size="10">400 orders</text><text x="804" y="870" fill="#FF5E1E" font-family="Arial" font-size="18" font-weight="700">€8.50</text>
    <rect x="1020" y="715" width="385" height="187" rx="16" fill="white" stroke="#EDE9E4"/><text x="1045" y="752" fill="#1D2026" font-family="Arial" font-size="16" font-weight="700">Recent activity</text><circle cx="1056" cy="790" r="12" fill="#FFE3D1"/><text x="1080" y="786" fill="#1D2026" font-family="Arial" font-size="11" font-weight="700">Sylvester updated inventory</text><text x="1080" y="802" fill="#969BA4" font-family="Arial" font-size="9">10 units of organic chicken breast</text><circle cx="1056" cy="836" r="12" fill="#E5F5EA"/><text x="1080" y="832" fill="#1D2026" font-family="Arial" font-size="11" font-weight="700">Order #1028 completed</text><text x="1080" y="848" fill="#969BA4" font-family="Arial" font-size="9">Updated a few minutes ago</text><circle cx="1056" cy="878" r="12" fill="#FFF1D5"/><text x="1080" y="874" fill="#1D2026" font-family="Arial" font-size="11" font-weight="700">New reservation added</text><text x="1080" y="890" fill="#969BA4" font-family="Arial" font-size="9">4 guests at 7:00 PM</text>
  </g>
  <defs><linearGradient id="area" x1="646" y1="367" x2="646" y2="606" gradientUnits="userSpaceOnUse"><stop stop-color="#FF5E1E" stop-opacity=".25"/><stop offset="1" stop-color="#FF5E1E" stop-opacity="0"/></linearGradient></defs>
</svg>
