<svg width="1440" height="960" viewBox="0 0 1440 960" fill="none" xmlns="http://www.w3.org/2000/svg">
  <rect width="1440" height="960" fill="#F6F5F2"/><rect width="238" height="960" fill="white"/><circle cx="48" cy="51" r="18" fill="#1D2026"/><path d="M30 51a18 18 0 0 0 36 0" fill="#FF5E1E"/><text x="78" y="58" fill="#1D2026" font-family="Arial" font-size="24" font-weight="700">Orderly</text>
  <g font-family="Arial" font-size="14" font-weight="600" fill="#858B96"><text x="73" y="130">Dashboard</text><text x="73" y="189">Business Details</text><text x="73" y="248">Products</text><text x="73" y="307">Promotions</text><text x="73" y="366">Customers</text><rect x="18" y="392" width="202" height="51" rx="13" fill="#FFF0E8"/><rect x="18" y="401" width="4" height="33" rx="2" fill="#FF5E1E"/><text x="73" y="423" fill="#FF5E1E">Orders</text><text x="73" y="484">Complaints</text><text x="73" y="543">Chat</text><text x="73" y="602">Settings</text></g>
  <g stroke="#9DA2AB" stroke-width="2"><circle cx="48" cy="126" r="9"/><rect x="39" y="178" width="18" height="16" rx="3"/><rect x="40" y="237" width="16" height="16" rx="2"/><path d="M39 297h18v15H39zM39 357h18M42 348h12v18H42z"/><path d="M39 408h18v19H39z" stroke="#FF5E1E"/><path d="M40 472h17v17H40zM39 531h18v15H39zM40 590h16v17H40z"/></g>
  <rect x="238" width="1202" height="82" fill="white"/><text x="281" y="44" fill="#1D2026" font-family="Arial" font-size="24" font-weight="700">Orders</text><text x="281" y="65" fill="#989DA5" font-family="Arial" font-size="11">Dashboard / Orders</text><rect x="1242" y="22" width="163" height="39" rx="12" fill="#1D2026"/><text x="1272" y="46" fill="white" font-family="Arial" font-size="11" font-weight="700">+ Create order</text>
  <text x="276" y="128" fill="#1D2026" font-family="Arial" font-size="21" font-weight="700">Order performance</text><text x="276" y="149" fill="#90959E" font-family="Arial" font-size="11">Monitor your restaurant&apos;s order flow.</text>
  <g font-family="Arial">
    <rect x="276" y="176" width="267" height="120" rx="16" fill="white" stroke="#EAE6E1"/><circle cx="313" cy="216" r="18" fill="#FFF0E8"/><path d="M305 208h16v18h-16z" stroke="#FF5E1E" stroke-width="2"/><text x="344" y="213" fill="#8F949D" font-size="10">TOTAL ORDERS</text><text x="344" y="250" fill="#1D2026" font-size="29" font-weight="700">200</text><text x="296" y="276" fill="#22A65A" font-size="9" font-weight="700">↑ 12%</text>
    <rect x="559" y="176" width="267" height="120" rx="16" fill="white" stroke="#EAE6E1"/><circle cx="596" cy="216" r="18" fill="#FFF3DB"/><circle cx="596" cy="216" r="8" stroke="#FFB800" stroke-width="2" stroke-dasharray="3 2"/><text x="627" y="213" fill="#8F949D" font-size="10">ON PROCESS</text><text x="627" y="250" fill="#1D2026" font-size="29" font-weight="700">45</text><text x="579" y="276" fill="#8F949D" font-size="9">22.5% of orders</text>
    <rect x="842" y="176" width="267" height="120" rx="16" fill="white" stroke="#EAE6E1"/><circle cx="879" cy="216" r="18" fill="#E7F7EC"/><circle cx="879" cy="216" r="9" stroke="#22A65A" stroke-width="2"/><path d="m874 216 3 3 6-7" stroke="#22A65A" stroke-width="2"/><text x="910" y="213" fill="#8F949D" font-size="10">COMPLETED</text><text x="910" y="250" fill="#1D2026" font-size="29" font-weight="700">140</text><text x="862" y="276" fill="#22A65A" font-size="9">70% success rate</text>
    <rect x="1125" y="176" width="280" height="120" rx="16" fill="white" stroke="#EAE6E1"/><circle cx="1162" cy="216" r="18" fill="#FDE8E8"/><path d="m1155 209 14 14m0-14-14 14" stroke="#EF4444" stroke-width="2"/><text x="1193" y="213" fill="#8F949D" font-size="10">CANCELED</text><text x="1193" y="250" fill="#1D2026" font-size="29" font-weight="700">15</text><text x="1145" y="276" fill="#EF4444" font-size="9">↓ 3% this week</text>
  </g>
  <rect x="276" y="318" width="716" height="243" rx="16" fill="white" stroke="#EAE6E1"/><text x="300" y="351" fill="#1D2026" font-family="Arial" font-size="15" font-weight="700">Order trends</text><text x="300" y="370" fill="#969BA4" font-family="Arial" font-size="9">Revenue over time</text><g stroke="#EEEAE6"><path d="M312 409h647M312 451h647M312 493h647M312 535h647"/></g><path d="M313 510C364 496 400 477 452 483C500 488 544 441 596 450C650 459 696 410 745 419C795 428 841 382 900 397C925 403 946 383 960 375" stroke="#FF5E1E" stroke-width="4" stroke-linecap="round"/><path d="M313 510C364 496 400 477 452 483C500 488 544 441 596 450C650 459 696 410 745 419C795 428 841 382 900 397C925 403 946 383 960 375V535H313Z" fill="url(#og)"/>
  <rect x="1010" y="318" width="395" height="243" rx="16" fill="white" stroke="#EAE6E1"/><text x="1035" y="351" fill="#1D2026" font-family="Arial" font-size="15" font-weight="700">Order type</text><circle cx="1153" cy="443" r="66" stroke="#F0DCCF" stroke-width="23"/><path d="M1153 377a66 66 0 0 1 58 97" stroke="#FF5E1E" stroke-width="23"/><path d="M1211 474a66 66 0 0 1-83 25" stroke="#1D2026" stroke-width="23"/><text x="1134" y="445" fill="#1D2026" font-family="Arial" font-size="20" font-weight="700">200</text><text x="1245" y="414" fill="#FF5E1E" font-family="Arial" font-size="10">● Dine In 75</text><text x="1245" y="445" fill="#1D2026" font-family="Arial" font-size="10">● Online 65</text><text x="1245" y="476" fill="#D4A686" font-family="Arial" font-size="10">● Takeaway 60</text>
  <rect x="276" y="583" width="1129" height="330" rx="16" fill="white" stroke="#EAE6E1"/><text x="301" y="619" fill="#1D2026" font-family="Arial" font-size="16" font-weight="700">All orders</text><rect x="301" y="637" width="269" height="37" rx="10" fill="#F8F7F5" stroke="#EAE6E1"/><text x="322" y="660" fill="#A1A5AD" font-family="Arial" font-size="10">⌕  Search orders...</text><rect x="1050" y="637" width="105" height="37" rx="10" fill="#F8F7F5"/><text x="1070" y="660" fill="#626871" font-family="Arial" font-size="10">This week⌄</text><rect x="1166" y="637" width="109" height="37" rx="10" fill="#F8F7F5"/><text x="1186" y="660" fill="#626871" font-family="Arial" font-size="10">All status⌄</text><rect x="1286" y="637" width="94" height="37" rx="10" fill="#FF5E1E"/><text x="1311" y="660" fill="white" font-family="Arial" font-size="10" font-weight="700">Filter</text>
  <rect x="301" y="691" width="1079" height="39" rx="7" fill="#F6F5F2"/><g fill="#888D96" font-family="Arial" font-size="9" font-weight="700"><text x="322" y="714">ORDER ID</text><text x="455" y="714">CUSTOMER</text><text x="661" y="714">DATE &amp; TIME</text><text x="839" y="714">AMOUNT</text><text x="997" y="714">TYPE</text><text x="1140" y="714">STATUS</text></g>
  <g font-family="Arial" font-size="10"><path d="M301 772h1079M301 822h1079M301 872h1079" stroke="#EEEAE6"/><g fill="#1D2026" font-weight="700"><text x="322" y="758">#ORD-1098</text><text x="455" y="758">Amelia Martin</text><text x="322" y="808">#ORD-1097</text><text x="455" y="808">Leo Wilson</text><text x="322" y="858">#ORD-1096</text><text x="455" y="858">Sophia Brown</text><text x="322" y="900">#ORD-1095</text><text x="455" y="900">Noah Miller</text></g><g fill="#777C85"><text x="661" y="758">22 Jul 2026 · 14:32</text><text x="839" y="758">€48.50</text><text x="997" y="758">Online</text><text x="661" y="808">22 Jul 2026 · 14:20</text><text x="839" y="808">€72.00</text><text x="997" y="808">Dine In</text><text x="661" y="858">22 Jul 2026 · 14:09</text><text x="839" y="858">€31.25</text><text x="997" y="858">Takeaway</text><text x="661" y="900">22 Jul 2026 · 13:51</text><text x="839" y="900">€96.40</text><text x="997" y="900">Online</text></g><rect x="1136" y="742" width="77" height="23" rx="11" fill="#FFF2D7"/><text x="1150" y="757" fill="#B17800" font-size="9" font-weight="700">On Process</text><rect x="1136" y="792" width="70" height="23" rx="11" fill="#E6F7EC"/><text x="1153" y="807" fill="#19874A" font-size="9" font-weight="700">Completed</text><rect x="1136" y="842" width="70" height="23" rx="11" fill="#E6F7EC"/><text x="1153" y="857" fill="#19874A" font-size="9" font-weight="700">Completed</text><rect x="1136" y="884" width="69" height="23" rx="11" fill="#FCE9E9"/><text x="1153" y="899" fill="#C43A3A" font-size="9" font-weight="700">Canceled</text></g>
  <defs><linearGradient id="og" x1="636" y1="375" x2="636" y2="535" gradientUnits="userSpaceOnUse"><stop stop-color="#FF5E1E" stop-opacity=".22"/><stop offset="1" stop-color="#FF5E1E" stop-opacity="0"/></linearGradient></defs>
</svg>
